<mxfile host="app.diagrams.net" agent="Mozilla/5.0 (Windows NT 10.0; Win64; x64; rv:128.0) Gecko/20100101 Firefox/128.0" version="24.7.4">
  <diagram name="Page-1" id="5PuWO_kRB9OpIuDTrn4n">
    <mxGraphModel dx="733" dy="368" grid="1" gridSize="10" guides="1" tooltips="1" connect="1" arrows="1" fold="1" page="1" pageScale="1" pageWidth="850" pageHeight="1100" math="0" shadow="0">
      <root>
        <mxCell id="0" />
        <mxCell id="1" parent="0" />
        <mxCell id="MHKYAvx1MBaDCZHofn24-1" value="Menu Login" style="rounded=0;whiteSpace=wrap;html=1;" vertex="1" parent="1">
          <mxGeometry x="260" y="160" width="120" height="60" as="geometry" />
        </mxCell>
        <mxCell id="MHKYAvx1MBaDCZHofn24-13" style="edgeStyle=orthogonalEdgeStyle;rounded=0;orthogonalLoop=1;jettySize=auto;html=1;exitX=1;exitY=0;exitDx=0;exitDy=0;entryX=0;entryY=1;entryDx=0;entryDy=0;curved=1;startArrow=classic;startFill=1;" edge="1" parent="1" source="MHKYAvx1MBaDCZHofn24-2" target="MHKYAvx1MBaDCZHofn24-1">
          <mxGeometry relative="1" as="geometry" />
        </mxCell>
        <mxCell id="MHKYAvx1MBaDCZHofn24-2" value="Username" style="ellipse;whiteSpace=wrap;html=1;" vertex="1" parent="1">
          <mxGeometry x="60" y="220" width="120" height="80" as="geometry" />
        </mxCell>
        <mxCell id="MHKYAvx1MBaDCZHofn24-10" style="edgeStyle=orthogonalEdgeStyle;rounded=0;orthogonalLoop=1;jettySize=auto;html=1;exitX=0;exitY=1;exitDx=0;exitDy=0;entryX=1;entryY=0;entryDx=0;entryDy=0;curved=1;startArrow=classic;startFill=1;" edge="1" parent="1" source="MHKYAvx1MBaDCZHofn24-3" target="MHKYAvx1MBaDCZHofn24-1">
          <mxGeometry relative="1" as="geometry" />
        </mxCell>
        <mxCell id="MHKYAvx1MBaDCZHofn24-3" value="Tabel" style="ellipse;whiteSpace=wrap;html=1;" vertex="1" parent="1">
          <mxGeometry x="430" y="50" width="120" height="80" as="geometry" />
        </mxCell>
        <mxCell id="MHKYAvx1MBaDCZHofn24-12" style="edgeStyle=orthogonalEdgeStyle;rounded=0;orthogonalLoop=1;jettySize=auto;html=1;exitX=0.5;exitY=0;exitDx=0;exitDy=0;entryX=0.5;entryY=1;entryDx=0;entryDy=0;curved=1;startArrow=classic;startFill=1;" edge="1" parent="1" source="MHKYAvx1MBaDCZHofn24-6" target="MHKYAvx1MBaDCZHofn24-1">
          <mxGeometry relative="1" as="geometry" />
        </mxCell>
        <mxCell id="MHKYAvx1MBaDCZHofn24-6" value="Password" style="ellipse;whiteSpace=wrap;html=1;" vertex="1" parent="1">
          <mxGeometry x="245" y="290" width="120" height="80" as="geometry" />
        </mxCell>
        <mxCell id="MHKYAvx1MBaDCZHofn24-11" style="edgeStyle=orthogonalEdgeStyle;rounded=0;orthogonalLoop=1;jettySize=auto;html=1;exitX=0;exitY=0;exitDx=0;exitDy=0;entryX=1;entryY=1;entryDx=0;entryDy=0;curved=1;startArrow=classic;startFill=1;" edge="1" parent="1" source="MHKYAvx1MBaDCZHofn24-7" target="MHKYAvx1MBaDCZHofn24-1">
          <mxGeometry relative="1" as="geometry" />
        </mxCell>
        <mxCell id="MHKYAvx1MBaDCZHofn24-7" value="Buat&lt;br&gt;Tabel" style="rhombus;whiteSpace=wrap;html=1;" vertex="1" parent="1">
          <mxGeometry x="460" y="280" width="80" height="80" as="geometry" />
        </mxCell>
        <mxCell id="MHKYAvx1MBaDCZHofn24-9" style="edgeStyle=orthogonalEdgeStyle;rounded=0;orthogonalLoop=1;jettySize=auto;html=1;exitX=1;exitY=1;exitDx=0;exitDy=0;entryX=0;entryY=0;entryDx=0;entryDy=0;curved=1;startArrow=classic;startFill=1;" edge="1" parent="1" source="MHKYAvx1MBaDCZHofn24-8" target="MHKYAvx1MBaDCZHofn24-1">
          <mxGeometry relative="1" as="geometry" />
        </mxCell>
        <mxCell id="MHKYAvx1MBaDCZHofn24-8" value="Input" style="rhombus;whiteSpace=wrap;html=1;" vertex="1" parent="1">
          <mxGeometry x="100" y="60" width="80" height="80" as="geometry" />
        </mxCell>
      </root>
    </mxGraphModel>
  </diagram>
</mxfile>
